<?xml version="1.0" encoding="UTF-8"?>
<!-- Generator: visioncortex VTracer 0.6.12 -->
<svg version="1.1" xmlns="http://www.w3.org/2000/svg" width="1122" height="153" viewBox="0 0 1122 153">
<path d="M0 0 C10.559999999999945 0 21.120000000000005 0 32 0 C39.59180357468165 14.737030468499576 46.282550600826085 29.851882906886836 53 45 C53.870728624623325 46.95719373007046 54.74178747488588 48.91424060407846 55.61328125 50.87109375 C57.41250951442555 54.9124490453073 59.207857738207736 58.95549767504893 61 63 C63.35137503523788 60.079833176408385 64.92957908321887 57.22553946305865 66.42578125 53.79296875 C66.6559997558594 53.269206542968746 66.6559997558594 53.269206542968746 67.821044921875 50.61865234375 C68.31322509765619 49.4863720703125 68.80540527343749 48.354091796875 69.3125 47.1875 C70.10157825976023 45.3924673771553 70.89068642835127 43.59744754684966 71.68104553222656 41.802978515625 C72.23799944550751 40.53839925224961 72.79441572442806 39.27358308024658 73.35032653808594 38.008544921875 C76.44296759887061 30.975956376674525 79.5879122385079 23.96709684473536 82.74618530273438 16.963775634765625 C83.68025605655794 14.891074297581149 84.6112712878255 12.817017663564524 85.542236328125 10.742919921875 C86.11519793031766 9.471752640109035 86.68834897213401 8.200670723197454 87.26171875 6.9296875 C87.76662841796872 5.808041992187498 88.27153808593744 4.686396484374999 88.791748046875 3.53076171875 C90 0.9999999999999929 90 0.9999999999999929 91 0 C93.14558826691939 -0.08775605102625406 95.29404421225661 -0.10695218955732955 97.44140625 -0.09765625 C98.74658203125 -0.09443359375000071 100.0517578125 -0.09121093750000142 101.396484375 -0.087890625 C102.78515689757899 -0.07953401158978934 104.17382877205341 -0.07106905053919732 105.5625 -0.0625 C106.95507655787924 -0.057486659703371856 108.34765481485897 -0.05292346543095405 109.740234375 -0.048828125 C113.16019870308219 -0.03699433839764055 116.580078440222 -0.02050880167778857 120 0 C118.79246158733804 3.2920007677547716 117.45450748871144 5.85223026145583 115.33984375 8.6328125 C112.09721761376841 13.735688323353223 112.7929361330946 18.074334631553825 113.5625 23.875 C113.79606554481188 26.018034324576128 114.02777259019217 28.161271856702996 114.2578125 30.3046875 C114.38446289062495 31.407802734374997 114.51111328124989 32.51091796875 114.6416015625 33.6474609375 C115.10798459161288 38.01011199729322 115.41465085434038 42.376424321348 115.714599609375 46.753173828125 C116.51645012907943 58.433141036831984 117.72302064560517 70.02155539312301 119.3046875 81.62109375 C119.74772436502417 84.88548553453924 120.10871949887314 88.12285347350134 120.3203125 91.41015625 C121.11409333581173 101.41383011670332 124.3865628512242 106.69256018746381 131 114 C130.67000000000007 114.66 130.33999999999992 115.32 130 116 C116.1400000000001 116 102.27999999999997 116 88 116 C90.11349785193329 109.65950644420022 90.11349785193329 109.65950644420022 92.153076171875 106.460205078125 C95.07365580127635 100.72575262315924 94.08788371122569 94.86680337229168 93.55078125 88.63671875 C93.50474510192873 88.00225074768066 93.50474510192873 88.00225074768066 93.27177429199219 84.79145812988281 C93.02383028038037 81.43889231722028 92.75596964190925 78.089134248877 92.47869873046875 74.73895263671875 C92.25678855628962 71.99983296564405 92.05489795644246 69.25940774008428 91.85398578643799 66.51867961883545 C91.43834946358913 60.85681162556861 91.00734022919903 55.19602177867978 90.544189453125 49.537841796875 C90.46328567504884 48.53826950073241 90.38238189697267 47.53869720458985 90.29902648925781 46.50883483886719 C90 44.000000000000036 90 44.000000000000036 89 41 C80.55627850853159 59.61925044645403 72.1893113526877 78.26711892387661 64 97 C63.25532569913594 98.70057223221168 62.51054038998973 100.40109586019396 61.765625 102.1015625 C60.17509052296839 105.73350672801055 58.58666900584399 109.3663655190398 57 113 C53.789930601216156 109.28983557908984 52.21961970715245 105.0838345998296 50.41015625 100.58984375 C50.06915390014649 99.75752227783204 49.72815155029298 98.92520080566406 49.37681579589844 98.06765747070313 C48.646119150906884 96.2836890258798 47.91780434750899 94.4987434825742 47.191650390625 92.71292114257813 C45.29898528178546 88.06080145816163 43.3869803480701 83.41667928116493 41.47265625 78.7734375 C41.092594299316374 77.85125930786133 40.71253234863286 76.92908111572265 40.320953369140625 75.97895812988281 C29.956378490779457 50.912756981558985 29.956378490779457 50.912756981558985 24 39 C23.33454213175537 46.76052338695747 22.706511031310924 54.52312485914577 22.124521255493164 62.290303230285645 C21.853052086756975 65.8979979690707 21.569366968957866 69.50380781824272 21.25634765625 73.108154296875 C20.954037579381975 76.59465688219657 20.685669575020484 80.0823510759133 20.439464569091797 83.5732479095459 C20.29257466500337 85.53512246350255 20.11173539142169 87.49436158198625 19.930084228515625 89.45332336425781 C19.41960000680683 97.18913499985678 20.25602872776824 102.04948143160914 24.482025146484375 108.61235046386719 C26 111 26 111 28 116 C16.450000000000045 116 4.899999999999977 116 -7 116 C-7 112.20801361128417 -5.828840118239668 111.18245265570113 -3.60888671875 108.155517578125 C0.5946499299778907 101.69990199931831 1.2959313494452545 96.08605304966537 1.7421875 88.51171875 C1.7915394592284883 87.88131935119628 1.7915394592284883 87.88131935119628 2.041290283203125 84.69111633300781 C2.296171910061844 81.36501525653146 2.5247515571551276 78.03930526570817 2.74017333984375 74.7105712890625 C2.963422893283564 71.36071628756068 3.221497540751443 68.01357131579877 3.4765625 64.666015625 C3.932135187557833 58.59514488938677 4.357716487672064 52.52288352159937 4.7657928466796875 46.44865417480469 C5.0926689112839085 41.635468544648035 5.438272663049247 36.82367861170855 5.7843475341796875 32.0118408203125 C5.8555128479004 31.01793334960938 5.926678161621112 30.02402587890625 6 29 C6.057751007080128 28.20493041992188 6.115502014160143 27.409860839843745 6.1750030517578125 26.5906982421875 C6.738863160844176 17.848709005529294 6.231038663017671 11.576267580827917 1.3125 4.0390625 C0 2 0 2 0 0 Z " fill="#F6F1E9" transform="translate(920,18)"/>
<path d="M0 0 C12.210000000000036 0 24.41999999999996 0 37 0 C35 5.999999999999993 35 5.999999999999993 32.9130859375 9.353759765625 C30.5671819631807 13.324865215022776 30.39773702431455 16.800594231241618 30.390625 21.33984375 C30.374995117187495 22.020831298828128 30.35936523437499 22.70181884765625 30.34326171875 23.4034423828125 C30.291196953987424 25.914447610244494 30.272488148161983 28.426055739198496 30.25 30.9375 C30.167500000000018 36.568125 30.085000000000036 42.198750000000004 30 48 C37.424999999999955 47.83500000000001 37.424999999999955 47.83500000000001 75 47 C75.12374999999997 41.9675 75.24749999999995 36.935 75.375 31.75 C75.42962402343755 30.188623046875 75.484248046875 28.627246093750003 75.54052734375 27.0185546875 C75.64079687586047 18.52475496743085 74.77414531989518 12.830139374659772 70.29931640625 5.3291015625 C69 2.9999999999999964 69 2.9999999999999964 69 0 C81.21000000000004 0 93.41999999999996 0 106 0 C104.70864309365538 3.2283922658616078 103.57634195582273 5.822875311734318 101.90933227539063 8.763748168945313 C99.69403541160727 13.1615303839592 99.41952396662396 16.91456751978739 99.45068359375 21.780029296875 C99.44046173095705 22.618629913330082 99.43023986816411 23.457230529785157 99.41970825195313 24.321243286132813 C99.3920843033186 27.07253193789601 99.39381761865991 29.82280852735809 99.3984375 32.57421875 C99.39065188335985 34.50462712336666 99.3819801485256 36.43503210607928 99.37246704101563 38.36543273925781 C99.3575769921963 42.40608838914488 99.35809798972446 46.446394495201574 99.36865234375 50.487060546875 C99.38021180083638 55.633756716487426 99.34643949229508 60.779006306657465 99.29996299743652 65.92546367645264 C99.2703108738458 69.91242160407836 99.26876909247812 73.89903872613633 99.27498245239258 77.88608741760254 C99.27396403028513 79.78168402999886 99.26364062361665 81.67730176708633 99.24335861206055 83.57279014587402 C99.1438590382578 94.17526092355348 99.51888594669128 102.24809498657073 104.81069946289063 111.67243957519531 C105.20316864013671 112.44053451538088 105.5956378173828 113.20862945556641 106 114 C105.66999999999996 114.66 105.34000000000003 115.32 105 116 C93.12 116 81.24000000000001 116 69 116 C69 112.33762008944171 70.07397631352285 111.14307784786246 71.9765625 108.046875 C76.41196644637444 99.39509940089921 75.6522774236231 90.7657685735422 75.375 81.25 C75.25125000000003 75.2275 75.12750000000005 69.205 75 63 C60.14999999999998 62.67 45.299999999999955 62.34 30 62 C30.020624999999995 68.31125 30.04124999999999 74.6225 30.0625 81.125 C30.056739501953075 82.10541259765625 30.056739501953075 82.10541259765625 30.027587890625 87.06689453125 C30.048246332379108 88.67223750311244 30.071446183030844 90.27755057093256 30.09765625 91.8828125 C30.083436279296848 92.67486083984375 30.069216308593695 93.4669091796875 30.0545654296875 94.282958984375 C30.271583592258708 103.32223723407972 33.41053599688996 106.82107199377982 38 116 C25.460000000000036 116 12.919999999999959 116 0 116 C1 111 1 111 3.0291595458984375 107.75508117675781 C5.549558529213982 103.52285953153826 5.57196254827511 99.75468719388067 5.533447265625 94.918701171875 C5.5420628356934 94.03641342163085 5.550678405761687 93.15412567138672 5.5595550537109375 92.24510192871094 C5.582156674758494 89.34408772367598 5.575485303825417 86.44404440876549 5.56640625 83.54296875 C5.571645472609362 81.51426407108463 5.577923046978299 79.48556183278838 5.5851898193359375 77.45686340332031 C5.595584177028513 73.20932538237169 5.5910479274074305 68.9621225520821 5.576416015625 64.714599609375 C5.559255173321162 59.290859550357126 5.582695556830686 53.86818158581106 5.617905616760254 48.444560050964355 C5.639948071964909 44.2552853976457 5.638421139324919 40.06626200697655 5.63014030456543 35.8769474029541 C5.6293240469223065 33.878409321233185 5.636124743298069 31.879852183973497 5.650911331176758 29.88136863708496 C5.769916773606155 10.881831847443202 5.769916773606155 10.881831847443202 0 2 C0 1.3399999999999999 0 0.6799999999999997 0 0 Z " fill="#F7F2EA" transform="translate(523,18)"/>
<path d="M0 0 C6.561201611536035 -0.07694837940290356 13.122284160548134 -0.12897075868392704 19.683837890625 -0.164794921875 C21.909468056977403 -0.17975146537314046 24.13506942947896 -0.20012406834607788 26.360595703125 -0.226318359375 C47.95283495561955 -0.473835599626117 68.50414870786847 0.7262762263849325 86 15 C86.6973828125 15.549140625 87.39476562499999 16.09828125 88.11328125 16.6640625 C96.64263642465392 24.183144537461878 102.69411461611702 36.69237045157535 103.421875 48 C104.54166447299161 66.60405788323 102.6359092419923 81.03266590377838 90.1875 95.875 C77.10851567176957 109.55416716547235 59.007079866576134 115.68456692700033 40.39599609375 116.23681640625 C34.262922739158626 116.32890837021736 28.132884612711564 116.26332648937955 22 116.1875 C19.856780322431348 116.17241375794629 17.713550276673686 116.15873238119099 15.5703125 116.146484375 C10.37994677864583 116.1138191350363 5.19009163215236 116.06225811197527 0 116 C0.6068815121865896 112.85596292793576 1.6704500913307356 110.97968728678512 3.518310546875 108.398681640625 C7.605809812242796 101.16487331786612 6.728076873782413 92.68630336578025 6.70703125 84.62109375 C6.720162133834094 82.8403200247407 6.735470606607009 81.05956114911092 6.7528533935546875 79.27882385253906 C6.7925538613554295 74.61815465598812 6.802884149062265 69.95787641644324 6.806884765625 65.29705810546875 C6.816244523261901 60.530601528866384 6.853675753919958 55.76437196529139 6.888671875 50.998046875 C6.953095263335172 41.665375052256884 6.98646029621591 32.332874759255176 7 23 C8.455375675404412 22.16151195655712 9.914403732457572 21.32936065664869 11.375 20.5 C12.187109374999977 20.035937500000003 12.999218750000011 19.571875 13.8359375 19.09375 C16 18 16 18 18 18 C18 17.340000000000003 18 16.68 18 16 C17.17500000000001 15.773125 16.350000000000023 15.54625 15.5 15.3125 C9.746605988363228 13.15497724563621 4.698531891826121 10.756809603108248 1.5 5.3125 C0 2 0 2 0 0 Z M31 14 C31.00523681640624 14.978614959716793 31.010473632812477 15.957229919433594 31.015869140625 16.965499877929688 C31.06002862058591 26.191227776190594 31.06220422463025 35.416139258767146 31.023345947265625 44.64190196990967 C31.004715573060878 49.38505009140522 31.000842854378277 54.12725125963976 31.03076171875 58.870361328125 C31.05909619299871 63.44854025960544 31.04857995978176 68.02513769481655 31.011199951171875 72.60323524475098 C31.003757247487442 74.34911075700019 31.010280075286914 76.0951038211588 31.031036376953125 77.84087181091309 C31.181054233703946 91.58912943557348 31.181054233703946 91.58912943557348 28.15234375 95.20718383789063 C26.106552270719874 96.50347755423837 24.32937308694119 97.36287550434683 22 98 C26.80659454448994 102.80659454448994 34.38253106134209 102.43599931363978 40.78857421875 102.438232421875 C50.02464981278604 102.1969678465187 58.59562091369065 98.70934951899075 65 92 C75.64761619385649 78.71736767736084 77.16967544767215 63.42119776536374 76 47 C74.16878753185227 36.12303919521898 68.78977344085024 26.095199229976323 59.98046875 19.25 C53.09778420277911 14.905899299584462 46.609268747512715 13.745748298554584 38.62109375 13.8984375 C37.88532104492185 13.90576904296875 37.14954833984376 13.9131005859375 36.3914794921875 13.920654296875 C34.59422518679173 13.939626530711902 32.79708301305703 13.968764953943747 31 14 Z " fill="#F7F2EA" transform="translate(368,18)"/>
<path d="M0 0 C0.41064453125 1.8542480468750249 0.41064453125 1.8542480468750249 0.6328125 4.26171875 C0.7166015624999886 5.13376953125 0.8003906250000057 6.005820312499999 0.88671875 6.904296875 C0.9653515625000182 7.82275390625 1.0439843749999795 8.7412109375 1.125 9.6875 C1.2113671875000023 10.58662109375 1.2977343750000045 11.485742187500001 1.38671875 12.412109375 C1.8068004979104444 16.956327013110702 2.106073858158936 21.43124739501158 2 26 C-1.9916120841593 24.22595018481809 -4.675563734645834 21.646020075399136 -7.8046875 18.65625 C-12.467645654545663 15.138288687673736 -17.4527385683256 14.731981062350627 -23.1484375 14.5859375 C-24.351616210937493 14.550327148437503 -25.554794921874986 14.514716796875 -26.79443359375 14.47802734375 C-27.550227050781245 14.461027832031249 -27.550227050781245 14.461027832031249 -31.375 14.375 C-36.20125 14.251249999999999 -41.0275 14.127499999999998 -46 14 C-46 25.22 -46 36.44 -46 48 C-42.57625 47.91749999999999 -39.1525 47.83500000000001 -35.625 47.75 C-34.56748535156251 47.734208984375 -33.50997070312499 47.71841796875 -32.42041015625 47.7021484375 C-25.534742299326922 47.45938041136985 -20.233302475989177 45.847075229428945 -14 43 C-13.009999999999991 42.67 -12.019999999999982 42.34 -11 42 C-11 50.58 -11 59.16 -11 68 C-14.629999999999995 66.35 -18.25999999999999 64.7 -22 63 C-29.92705436943038 61.253360901650936 -37.823403931297975 62 -46 62 C-46 75.2 -46 88.4 -46 102 C-41.565625 101.896875 -37.131249999999994 101.79375 -32.5625 101.6875 C-31.872569580078107 101.67505249023438 -31.872569580078107 101.67505249023438 -28.381103515625 101.612060546875 C-19.662420994017253 101.35301489398837 -11.664147037713917 100.66114648358257 -4.625 95.0625 C-3.998515624999982 94.5791015625 -3.3720312500000205 94.095703125 -2.7265625 93.59765625 C-0.8730927975510667 91.88256776967961 0.5486425022645562 90.0612838081335 2 88 C2.6599999999999966 88.16499999999999 2.6599999999999966 88.16499999999999 6 89 C4.349999999999994 97.91 2.6999999999999886 106.82 1 116 C-25.400000000000006 116 -51.80000000000001 116 -79 116 C-77.57381108437822 112.43452771094553 -76.41502208302023 109.98828522969677 -74.42138671875 106.874267578125 C-71.45812198774337 101.59582050357471 -71.25335707558921 96.97249279740561 -71.2578125 91.01171875 C-71.23973037719726 89.96669692993164 -71.22164825439454 88.92167510986329 -71.20301818847656 87.84498596191406 C-71.15182009974424 84.4589198826468 -71.13679363230563 81.07391462304876 -71.125 77.6875 C-71.10174513043142 75.34927288632936 -71.0774048817871 73.01105632583416 -71.052001953125 70.6728515625 C-70.98948830640308 63.781683415845805 -70.98481758615034 56.89138848131172 -71 50 C-71.00106750488281 49.01155090332031 -71.00213500976562 48.023101806640625 -71.00323486328125 47.00469970703125 C-71.01246404537542 41.8446973566717 -71.05147120697045 36.68667067941111 -71.14617919921875 31.527496337890625 C-71.17343102010379 30.025446012314603 -71.19555937867918 28.523292789393494 -71.21221923828125 27.021087646484375 C-71.34715804252568 16.818471568392795 -72.6670848079167 10.232789749708303 -79 2 C-79 1.3399999999999999 -79 0.6799999999999997 -79 0 C-77.69780517578126 0.0052368164062492895 -76.3956103515625 0.010473632812498579 -75.053955078125 0.015869140625 C-68.97348081170261 0.0382242143291478 -62.89300587550254 0.052171726435830124 -56.8125 0.0625 C-56.26729705810547 0.06347183227538977 -56.26729705810547 0.06347183227538977 -53.50823974609375 0.068389892578125 C-39.00662293164471 0.0864636962852714 -24.540509671958546 -0.0438509795575861 -10.053955078125 -0.732177734375 C-8.997165527343753 -0.7805981445312504 -7.940375976562507 -0.8290185546875009 -6.8515625 -0.87890625 C-5.952602539062497 -0.9260375976562507 -5.053642578124993 -0.9731689453125014 -4.12744140625 -1.021728515625 C-2 -1 -2 -1 0 0 Z " fill="#F6F1E9" transform="translate(162,18)"/>
<path d="M0 0 C0.33972800956075844 2.81185593627508 0.6719021188514489 5.624282356909198 1 8.4375 C1.0953906249999363 9.220605468750001 1.1907812499999864 10.0037109375 1.2890625 10.810546875 C1.9151113097035477 16.243756187784548 2.0875957136473744 21.530742629140278 2 27 C1.534406738281291 26.58032958984375 1.0688134765624682 26.1606591796875 0.589111328125 25.728271484375 C-6.410791927639366 19.463021785387113 -12.502330398323693 15.957076274333609 -22.07421875 15.68359375 C-23.325495605468745 15.64548583984375 -24.57677246093749 15.607377929687502 -25.865966796875 15.568115234375 C-27.457072753906232 15.525012207031253 -29.048178710937464 15.481909179687499 -30.6875 15.4375 C-35.74062500000002 15.293125000000003 -40.793750000000045 15.14875 -46 15 C-46 26.22 -46 37.44 -46 49 C-22.78018286993847 48.57524724762082 -22.78018286993847 48.57524724762082 -12 43 C-11.340000000000032 43 -10.680000000000064 43 -10 43 C-10 51.58 -10 60.16 -10 69 C-12.816753913666048 67.87329843453357 -15.621984240697316 66.71204433301048 -18.375 65.4375 C-27.40505812363324 61.856614882007506 -36.22774109789964 63 -46 63 C-46 76.2 -46 89.4 -46 103 C-41.58624999999995 102.896875 -37.172500000000014 102.79375 -32.625 102.6875 C-31.254243164062473 102.66260498046876 -29.883486328124945 102.6377099609375 -28.47119140625 102.612060546875 C-19.010133405284932 102.33032638962267 -10.037509740178734 101.8313388584313 -2.9375 94.9375 C-2.5707617187499636 94.59138671875 -2.5707617187499636 94.59138671875 -0.71484375 92.83984375 C1 91.00000000000001 1 91.00000000000001 2 89 C2.659999999999968 89.16499999999999 2.659999999999968 89.16499999999999 6 90 C4.350000000000023 98.91 2.7000000000000455 107.82 1 117 C-24.74000000000001 117 -50.48000000000002 117 -77 117 C-76.23443683877758 113.17218419388794 -75.73378659835043 111.12584987190701 -74 107.875 C-71.32477608682632 102.81961363466444 -70.83393357958039 98.62364296282462 -70.791259765625 92.955322265625 C-70.78147598266605 92.13535263061523 -70.77169219970699 91.31538299560548 -70.76161193847656 90.47056579589844 C-70.73166496526846 87.75252901889141 -70.71026637285672 85.03454178753665 -70.69140625 82.31640625 C-70.68483442306524 81.38533491134643 -70.67826259613037 80.45426357269287 -70.6714916229248 79.4949779510498 C-70.63889026301979 74.55989984827023 -70.61444943890001 69.62484329427339 -70.594970703125 64.689697265625 C-70.577211313426 60.6206886038556 -70.54247892082356 56.55237997468902 -70.492431640625 52.483642578125 C-70.43193101016618 47.55878593461233 -70.40145312753532 42.63457447911436 -70.39179801940918 37.70936393737793 C-70.38328736782762 35.840804360418176 -70.36457895832496 33.97225995268666 -70.33505439758301 32.10391426086426 C-70.16302438415573 20.591276719170757 -70.91712753451236 12.99831934443717 -77 3 C-77 2.34 -77 1.6799999999999997 -77 1 C-76.41370819091799 1.0026184082031264 -75.82741638183597 1.0052368164062493 -75.22335815429688 1.0079345703125 C-58.8503600775864 1.0703794124130432 -42.49385195676598 0.8518405859143279 -26.125 0.5 C-23.79427561485022 0.45159214756240473 -21.463546443955124 0.40341415858681984 -19.1328125 0.35546875 C-15.884106181543302 0.28862499559690136 -12.635410663115522 0.22145989048984305 -9.386749267578125 0.1524658203125 C-8.44330657958983 0.13244506835937386 -7.499863891601535 0.11242431640625128 -6.52783203125 0.091796875 C-5.6986526489257585 0.07403198242187514 -4.869473266601517 0.056267089843750284 -4.015167236328125 0.0379638671875 C-2.676955784937377 0.012753214248363065 -1.3384489028927646 0 0 0 Z " fill="#F7F2EA" transform="translate(769,17)"/>
<path d="M0 0 C12.210000000000008 0 24.420000000000016 0 37 0 C35.51062309300619 4.4681307209814705 34.325015315324606 7.158670348594121 32 11 C30.757115955232564 15.085800522643545 30.867202432137162 19.11506991187788 30.886474609375 23.3486328125 C30.886328582763667 24.188023986816404 30.886182556152335 25.027415161132808 30.886032104492188 25.892242431640625 C30.886727934487794 28.662563044566667 30.89450493039749 31.43281615308917 30.90234375 34.203125 C30.904209099621426 36.12554894271075 30.90563245134365 38.04797336110118 30.906631469726563 39.97039794921875 C30.910447430418174 45.02727574765305 30.920269877820374 50.084124771717455 30.93133544921875 55.1409912109375 C30.94156935244729 60.302323514467986 30.946133334793558 65.46366047234731 30.951171875 70.625 C30.961892952490132 80.75001263398346 30.97895834541322 90.875003923062 31 101 C34.77056169065372 101.11798604399686 38.54063764777749 101.18783864281211 42.3125 101.25 C43.36501953125003 101.283515625 44.4175390625 101.31703125 45.501953125 101.3515625 C54.15132231059499 101.45801627459194 62.04444293760395 100.1770697682011 68.9375 94.640625 C69.61812500000002 93.85171875 70.29874999999998 93.0628125 71 92.25 C73.125 89.82812500000001 73.125 89.82812500000001 75 88 C75.99000000000001 88 76.98000000000002 88 78 88 C76.64984190556686 97.41933823528086 74.86966286320228 106.65168568398875 73 116 C48.90999999999997 116 24.819999999999993 116 0 116 C0.8728877587612942 111.63556120619347 1.311734561726496 110.33718596611348 3.518798828125 106.895751953125 C7.548736361332402 99.01492276950967 6.739555158259549 90.30337398282872 6.69921875 81.66796875 C6.705138718046726 79.78525849578949 6.712390043405264 77.90255200661325 6.7209014892578125 76.01985168457031 C6.732741032319467 72.08521832057129 6.726144341010638 68.15115204536457 6.706787109375 64.216552734375 C6.683943134511026 59.20661522476101 6.710652539359899 54.19837884522593 6.751849174499512 49.18860912322998 C6.77759063510112 45.30284881533912 6.774802464519837 41.4174864651644 6.763956069946289 37.53167152404785 C6.762482194400832 35.68632782459063 6.770008964427717 33.84095163413937 6.787206649780273 31.99568748474121 C6.8786721883201665 20.279360019373215 5.706453533368887 12.409718210804527 0 2 C0 1.3399999999999999 0 0.6799999999999997 0 0 Z " fill="#F7F2EA" transform="translate(236,18)"/>
<path d="M0 0 C11.879999999999995 0 23.75999999999999 0 36 0 C34 6 34 6 32.4012451171875 8.82025146484375 C30.576828979396623 12.96027270060005 30.56396811988577 16.403291070460014 30.580078125 20.8759765625 C30.575843353271466 21.312170639038087 30.575843353271466 21.312170639038087 30.554412841796875 23.519577026367188 C30.531083127544548 26.393409519834705 30.53001996397029 29.266705095550307 30.53125 32.140625 C30.52414439449933 34.14833792970003 30.516444810805297 36.15604883708543 30.5081787109375 38.16375732421875 C30.494741949612717 42.370133898151025 30.49316082847963 46.57632283383427 30.4990234375 50.78271484375 C30.504909073682143 56.153763765930734 30.47437097596162 61.5239055079371 30.43390655517578 66.89477920532227 C30.407958459377824 71.04200020737005 30.405158774682832 75.18900510212063 30.408798217773438 79.33629608154297 C30.407112642456696 81.31530785569264 30.397524680652168 83.29433022123979 30.379653930664063 85.27326202392578 C30.229126717317968 104.00743328521133 30.229126717317968 104.00743328521133 34.9271240234375 111.24627685546875 C36 113 36 113 36 116 C24.120000000000005 116 12.240000000000009 116 0 116 C0 112.55188754834617 0.7785811000538843 111.52279957468065 2.45849609375 108.574462890625 C6.419157952839896 100.03174757095834 5.720390618046508 91.0324310474888 5.6640625 81.80859375 C5.667437241983066 79.85286661220016 5.6722953194114325 77.89714152987158 5.678558349609375 75.94142150878906 C5.685896891562265 71.85893626084676 5.675320861935916 67.77700098579491 5.65185546875 63.694580078125 C5.623350623886495 58.48389443706809 5.639801890618855 53.2744957615094 5.669717788696289 48.063857078552246 C5.687856484768531 44.03068995735091 5.6820030161799195 39.9978238876069 5.669078826904297 35.96464729309082 C5.665763939300518 34.04426988353932 5.669763740929625 32.1238643716817 5.681476593017578 30.203519821166992 C5.767795604325784 12.079967786904817 5.767795604325784 12.079967786904817 1.070404052734375 4.7752838134765625 C0 3 0 3 0 0 Z " fill="#F7F2EA" transform="translate(823,18)"/>
<path d="M0 0 C0 4.290000000000006 0 8.579999999999998 0 13 C-4.378537399607012 11.248585040157195 -7.970727416282443 9.370160343363253 -12 7 C-9.202324749839647 3.7086173527525403 -4.4032327315119915 0 0 0 Z " fill="#D69D3A" transform="translate(471,68)"/>
<path d="M0 0 C0.872341204557415 2.994809174700734 1.108297660208791 5.63575910579641 1.0625 8.75 C1.053476562500009 9.549218749999994 1.0444531250000182 10.348437500000003 1.03515625 11.171875 C1.0235546875001091 11.775156249999995 1.011953124999991 12.378437500000004 1 13 C-3.307648153453556 11.433582489653247 -7.061714644685935 9.316638444302356 -11 7 C-8.216770242614075 3.9075224917933298 -4.3103941200815825 0 0 0 Z " fill="#D69D3A" transform="translate(1035,68)"/>
<path d="M0 0 C3.802415708318449 1.5209662833273683 7.364746147728738 3.1401026802333405 11 5 C9.836308736514866 8.491073790455374 9.110264620978796 8.852227633298483 6.0625 10.6875 C5.35222656250005 11.124492187499996 4.641953124999986 11.561484374999992 3.91015625 12.01171875 C2 13 2 13 0 13 C0 8.710000000000008 0 4.420000000000002 0 0 Z " fill="#D69D3A" transform="translate(699,68)"/>
<path d="M0 0 C0 4.290000000000006 0 8.579999999999998 0 13 C-4.212947602447002 11.314820959021205 -7.323158889770184 9.565237983881246 -11 7 C-8.216770242613961 3.9075224917933298 -4.3103941200815825 0 0 0 Z " fill="#D69D3A" transform="translate(622,68)"/>
<path d="M0 0 C0.6599999999999682 0 1.32000000000005 0 2 0 C3.980000000000018 3.6299999999999955 5.960000000000036 7.259999999999991 8 11 C3.7100000000000364 11 -0.5800000000000409 11 -5 11 C-3.479033716672575 7.197584291681551 -1.8598973197666737 3.6352538522712194 0 0 Z " fill="#D69D3A" transform="translate(840,122)"/>
<path d="M0 0 C2.791637117766527 2.4076870270708923 3.897175567084787 4.761466160880431 5.1875 8.1875 C5.531679687499945 9.088554687499993 5.8758593750000045 9.989609375 6.23046875 10.91796875 C6.484414062500036 11.605039062499998 6.738359374999959 12.292109374999995 7 13 C5.395661914648258 12.521407588047055 3.791535843392353 12.04210442241633 2.1875 11.5625 C1.294179687499991 11.295664062499995 0.4008593749999818 11.028828125000004 -0.51953125 10.75390625 C-2.3547305450312024 10.19612126741572 -4.180337260547503 9.606554246484151 -6 9 C-4.472910372131082 5.564048337294935 -2.4007295465445395 2.88087545585347 0 0 Z " fill="#D69D3A" transform="translate(972,65)"/>
<path d="M0 0 C9.875 4.75 9.875 4.75 11 7 C7.3700000000000045 8.980000000000004 3.739999999999995 10.960000000000008 0 13 C0 8.710000000000008 0 4.420000000000002 0 0 Z " fill="#D69D3A" transform="translate(92,68)"/>
<path d="M0 0 C0.6599999999999966 0 1.3199999999999932 0 2 0 C3.2890625 1.6796875 3.2890625 1.6796875 4.625 3.875 C5.071015624999973 4.594296874999998 5.517031250000002 5.3135937499999955 5.9765625 6.0546875 C7 8 7 8 7 10 C3.0400000000000205 10 -0.9199999999999875 10 -5 10 C-3.5175509159983562 6.293877289995891 -2.22884793988527 3.2504032456660354 0 0 Z " fill="#D69D3A" transform="translate(254,123)"/>
<path d="M0 0 C3.9600000000000364 0 7.919999999999959 0 12 0 C10.517550915998413 3.706122710004095 9.228847939885327 6.749596754333968 7 10 C6.340000000000032 10 5.67999999999995 10 5 10 C3.7109375 8.3203125 3.7109375 8.3203125 2.375 6.125 C1.9289843750000273 5.405703124999999 1.4829687500000546 4.686406250000001 1.0234375 3.9453125 C0 2 0 2 0 0 Z " fill="#D69D3A" transform="translate(835,18)"/>
<path d="M0 0 C3.960000000000008 0 7.920000000000016 0 12 0 C10.517550915998356 3.706122710004095 9.22884793988527 6.749596754333968 7 10 C6.340000000000003 10 5.680000000000007 10 5 10 C3.7109375 8.3203125 3.7109375 8.3203125 2.375 6.125 C1.9289843749999989 5.405703124999999 1.4829687499999977 4.686406250000001 1.0234375 3.9453125 C0 2 0 2 0 0 Z " fill="#D69D3A" transform="translate(249,18)"/>
</svg>
