# Made in Blockbench 5.1.4
mtllib Wood_Hardwood_Beam_Corner.mtl

o root1
v -0.43750000000000006 0.5625 0.4375
v -0.43750000000000006 0.5625 -1
v -0.43749999999999994 1.4375 0.4375
v -0.43749999999999994 1.4375 -1
v 0.43749999999999994 0.5625 -1
v 0.43749999999999994 0.5625 0.4375
v 0.43750000000000006 1.4375 -1
v 0.43750000000000006 1.4375 0.4375
vt 0.21875 1
vt 0.21875 0.78125
vt 0 0.78125
vt 0 1
vt 0 1
vt 0.359375 1
vt 0.359375 0.78125
vt 0 0.78125
vt 0.71875 0.96875
vt 0.71875 0.75
vt 0.5 0.75
vt 0.5 0.96875
vt 0.703125 0.3125
vt 0.34375 0.3125
vt 0.34375 0.09375
vt 0.703125 0.09375
vt 0.125 0.5
vt 0.125 0.71875
vt 0.484375 0.71875
vt 0.484375 0.5
vt 0.46875 0.71875
vt 0.46875 0.5
vt 0.109375 0.5
vt 0.109375 0.71875
vn 0 0 -1
vn -1 1.2246467991473532e-16 0
vn 0 0 1
vn 1 -1.2246467991473532e-16 0
vn -1.2246467991473532e-16 -1 0
vn 1.2246467991473532e-16 1 0
usemtl m_ab2c7da7-b519-d64f-7977-613f3044f84d
f 4/4/1 7/3/1 5/2/1 2/1/1
f 3/8/2 4/7/2 2/6/2 1/5/2
f 8/12/3 3/11/3 1/10/3 6/9/3
f 7/16/4 8/15/4 6/14/4 5/13/4
f 6/20/5 1/19/5 2/18/5 5/17/5
f 7/24/6 4/23/6 3/22/6 8/21/6
o root1
v 0.4375 1.4375 0.4375000000000001
v -0.4375 1.4375 0.4374999999999999
v 0.43750000000000006 2 0.4375000000000001
v -0.43749999999999994 2 0.4374999999999999
v -0.43749999999999983 1.4375 -0.4375000000000001
v 0.43750000000000017 1.4375 -0.4374999999999999
v -0.4374999999999998 2 -0.4375000000000001
v 0.4375000000000002 2 -0.4374999999999999
vt 0 1
vt 0.21875 1
vt 0.21875 0.859375
vt 0 0.859375
vt 0.75 1
vt 0.75 0.78125
vt 0.609375 0.78125
vt 0.609375 1
vt 0.609375 0.34375
vt 0.390625 0.34375
vt 0.390625 0.203125
vt 0.609375 0.203125
vt 0.078125 1
vt 0.078125 0.78125
vt 0.21875 0.78125
vt 0.21875 1
vt 0.265625 1
vt 0.484375 1
vt 0.484375 0.78125
vt 0.265625 0.78125
vt 0.265625 1
vt 0.484375 1
vt 0.484375 0.78125
vt 0.265625 0.78125
vn -1 1.2246467991473532e-16 -2.220446049250313e-16
vn -2.220446049250313e-16 2.719262146893782e-32 1
vn 1 -1.2246467991473532e-16 2.220446049250313e-16
vn 2.220446049250313e-16 -2.719262146893782e-32 -1
vn -1.2246467991473532e-16 -1 0
vn 1.2246467991473532e-16 1 0
usemtl m_ab2c7da7-b519-d64f-7977-613f3044f84d
f 12/28/7 15/27/7 13/26/7 10/25/7
f 11/32/8 12/31/8 10/30/8 9/29/8
f 16/36/9 11/35/9 9/34/9 14/33/9
f 15/40/10 16/39/10 14/38/10 13/37/10
f 14/44/11 9/43/11 10/42/11 13/41/11
f 15/48/12 12/47/12 11/46/12 16/45/12